<svg width="0" height="0" class="hidden">
  <symbol xmlns="http://www.w3.org/2000/svg" viewBox="0 -960 960 960" id="groups">
    <path d="M0-240v-63q0-43 44-70t116-27q13 0 25 .5t23 2.5q-14 21-21 44t-7 48v65H0Zm240 0v-65q0-32 17.5-58.5T307-410q32-20 76.5-30t96.5-10q53 0 97.5 10t76.5 30q32 20 49 46.5t17 58.5v65H240Zm540 0v-65q0-26-6.5-49T754-397q11-2 22.5-2.5t23.5-.5q72 0 116 26.5t44 70.5v63H780Zm-455-80h311q-10-20-55.5-35T480-370q-55 0-100.5 15T325-320ZM160-440q-33 0-56.5-23.5T80-520q0-34 23.5-57t56.5-23q34 0 57 23t23 57q0 33-23 56.5T160-440Zm640 0q-33 0-56.5-23.5T720-520q0-34 23.5-57t56.5-23q34 0 57 23t23 57q0 33-23 56.5T800-440Zm-320-40q-50 0-85-35t-35-85q0-51 35-85.5t85-34.5q51 0 85.5 34.5T600-600q0 50-34.5 85T480-480Zm0-80q17 0 28.5-11.5T520-600q0-17-11.5-28.5T480-640q-17 0-28.5 11.5T440-600q0 17 11.5 28.5T480-560Zm1 240Zm-1-280Z"></path>
  </symbol>
  <symbol xmlns="http://www.w3.org/2000/svg" viewBox="0 -960 960 960" id="savings">
    <path d="M640-520q17 0 28.5-11.5T680-560q0-17-11.5-28.5T640-600q-17 0-28.5 11.5T600-560q0 17 11.5 28.5T640-520Zm-320-80h200v-80H320v80ZM180-120q-34-114-67-227.5T80-580q0-92 64-156t156-64h200q29-38 70.5-59t89.5-21q25 0 42.5 17.5T720-820q0 6-1.5 12t-3.5 11q-4 11-7.5 22.5T702-751l91 91h87v279l-113 37-67 224H480v-80h-80v80H180Zm60-80h80v-80h240v80h80l62-206 98-33v-141h-40L620-720q0-20 2.5-38.5T630-796q-29 8-51 27.5T547-720H300q-58 0-99 41t-41 99q0 98 27 191.5T240-200Zm240-298Z"></path>
  </symbol>
  <symbol xmlns="http://www.w3.org/2000/svg" viewBox="0 -960 960 960" id="attractions">
    <path d="m233-80 54-122q-14-11-27-21.5T235-246q-8 3-15.5 4.5T203-240q-33 0-56.5-23.5T123-320q0-20 8.5-36.5T155-384q-8-23-11-46.5t-3-49.5q0-26 3-49.5t11-46.5q-15-11-23.5-27.5T123-640q0-33 23.5-56.5T203-720q9 0 16.5 1.5T235-714q33-36 75.5-60t90.5-36q5-30 27.5-50t52.5-20q30 0 52.5 20.5T561-810q48 12 90.5 35.5T727-716q8-3 15-4.5t15-1.5q33 0 56.5 23.5T837-642q0 20-8 35.5T807-580q8 24 11 49t3 51q0 26-3 50.5T807-382q14 11 22 26.5t8 35.5q0 33-23.5 56.5T757-240q-8 0-15-1.5t-15-4.5q-12 12-24.5 23.5T675-200l52 120h-74l-38-88q-14 6-27 10.5t-27 7.5q-5 29-27.5 49.5T481-80q-30 0-52.5-20T401-150q-15-3-28.5-7.5T345-168l-38 88h-74Zm76-174 62-140q-14-18-22-40t-8-46q0-57 41.5-98.5T481-620q57 0 98.5 41.5T621-480q0 24-8.5 47T589-392l62 138q9-8 17.5-14.5T685-284q-5-8-6.5-17.5T677-320q0-32 22-55t54-25q6-20 9-39.5t3-40.5q0-21-3-41.5t-9-40.5q-32-2-54-25t-22-55q0-9 2.5-17.5T685-676q-29-29-64-49t-74-31q-11 17-28 26.5t-38 9.5q-21 0-38-9.5T415-756q-41 11-76 31.5T275-674q3 8 5.5 16.5T283-640q0 32-21 54.5T209-560q-6 20-9 39.5t-3 40.5q0 21 3 40.5t9 39.5q32 2 53 25t21 55q0 9-1.5 17.5T275-286q8 9 16.5 16.5T309-254Zm60 34q11 5 22.5 9t23.5 7q11-17 28-26.5t38-9.5q21 0 38 9.5t28 26.5q12-3 22.5-7t21.5-9l-58-130q-12 5-25 7.5t-27 2.5q-15 0-28.5-3t-25.5-9l-58 132Zm112-200q24 0 42-17t18-43q0-24-18-42t-42-18q-26 0-43 18t-17 42q0 26 17 43t43 17Zm0-60Z"></path>
  </symbol>
  <symbol xmlns="http://www.w3.org/2000/svg" viewBox="0 -960 960 960" id="paid">
    <path d="M444-200h70v-50q50-9 86-39t36-89q0-42-24-77t-96-61q-60-20-83-35t-23-41q0-26 18.5-41t53.5-15q32 0 50 15.5t26 38.5l64-26q-11-35-40.5-61T516-710v-50h-70v50q-50 11-78 44t-28 74q0 47 27.5 76t86.5 50q63 23 87.5 41t24.5 47q0 33-23.5 48.5T486-314q-33 0-58.5-20.5T390-396l-66 26q14 48 43.5 77.5T444-252v52Zm36 120q-83 0-156-31.5T197-197q-54-54-85.5-127T80-480q0-83 31.5-156T197-763q54-54 127-85.5T480-880q83 0 156 31.5T763-763q54 54 85.5 127T880-480q0 83-31.5 156T763-197q-54 54-127 85.5T480-80Zm0-80q134 0 227-93t93-227q0-134-93-227t-227-93q-134 0-227 93t-93 227q0 134 93 227t227 93Zm0-320Z"></path>
  </symbol>
  <symbol xmlns="http://www.w3.org/2000/svg" viewBox="0 -960 960 960" id="monitoring">
    <path d="M120-120v-80l80-80v160h-80Zm160 0v-240l80-80v320h-80Zm160 0v-320l80 81v239h-80Zm160 0v-239l80-80v319h-80Zm160 0v-400l80-80v480h-80ZM120-327v-113l280-280 160 160 280-280v113L560-447 400-607 120-327Z"></path>
  </symbol>
  <symbol xmlns="http://www.w3.org/2000/svg" viewBox="0 -960 960 960" id="rocket">
    <path d="m226-559 78 33q14-28 29-54t33-52l-56-11-84 84Zm142 83 114 113q42-16 90-49t90-75q70-70 109.5-155.5T806-800q-72-5-158 34.5T492-656q-42 42-75 90t-49 90Zm178-65q-23-23-23-56.5t23-56.5q23-23 57-23t57 23q23 23 23 56.5T660-541q-23 23-57 23t-57-23Zm19 321 84-84-11-56q-26 18-52 32.5T532-299l33 79Zm313-653q19 121-23.5 235.5T708-419l20 99q4 20-2 39t-20 33L538-80l-84-197-171-171-197-84 167-168q14-14 33.5-20t39.5-2l99 20q104-104 218-147t235-24ZM157-321q35-35 85.5-35.5T328-322q35 35 34.5 85.5T327-151q-25 25-83.5 43T82-76q14-103 32-161.5t43-83.5Zm57 56q-10 10-20 36.5T180-175q27-4 53.5-13.5T270-208q12-12 13-29t-11-29q-12-12-29-11.5T214-265Z"></path>
  </symbol>
</svg>